<?xml version="1.0" encoding="UTF-8"?>
<svg width="33px" height="33px" viewBox="0 0 33 33" version="1.1" xmlns="http://www.w3.org/2000/svg" xmlns:xlink="http://www.w3.org/1999/xlink">
    <!-- Generator: Sketch 58 (84663) - https://sketch.com -->
    <title>facebook-square-brands</title>
    <desc>Created with Sketch.</desc>
    <g id="Symbols" stroke="none" stroke-width="1" fill="none" fill-rule="evenodd">
        <g id="FOOTER/desktop" transform="translate(-124.000000, -148.000000)" fill="#3E61DF" fill-rule="nonzero">
            <g id="facebook-square-brands" transform="translate(124.000000, 148.000000)">
                <path d="M29.4642857,0 L3.53571429,0 C1.58299321,0 0,1.58299321 0,3.53571429 L0,29.4642857 C0,31.4170068 1.58299321,33 3.53571429,33 L13.6456473,33 L13.6456473,21.7807366 L9.00502232,21.7807366 L9.00502232,16.5 L13.6456473,16.5 L13.6456473,12.4751786 C13.6456473,7.89716518 16.3710938,5.36839286 20.5454464,5.36839286 C22.5445982,5.36839286 24.6350893,5.72491071 24.6350893,5.72491071 L24.6350893,10.2182143 L22.3317188,10.2182143 C20.0622321,10.2182143 19.3543527,11.6266071 19.3543527,13.0710938 L19.3543527,16.5 L24.4207366,16.5 L23.6104687,21.7807366 L19.3543527,21.7807366 L19.3543527,33 L29.4642857,33 C31.4170068,33 33,31.4170068 33,29.4642857 L33,3.53571429 C33,1.58299321 31.4170068,0 29.4642857,0 L29.4642857,0 Z" id="Path"></path>
            </g>
        </g>
    </g>
</svg>