<?xml version="1.0" encoding="UTF-8"?>
<svg width="108px" height="86px" viewBox="0 0 108 86" version="1.1" xmlns="http://www.w3.org/2000/svg" xmlns:xlink="http://www.w3.org/1999/xlink">
    <!-- Generator: Sketch 58 (84663) - https://sketch.com -->
    <title>Group 17</title>
    <desc>Created with Sketch.</desc>
    <defs>
        <ellipse id="path-1" cx="60.9756098" cy="39" rx="39.0243902" ry="39"></ellipse>
        <filter x="-9.0%" y="-6.4%" width="117.9%" height="117.9%" filterUnits="objectBoundingBox" id="filter-2">
            <feOffset dx="0" dy="2" in="SourceAlpha" result="shadowOffsetOuter1"></feOffset>
            <feGaussianBlur stdDeviation="2" in="shadowOffsetOuter1" result="shadowBlurOuter1"></feGaussianBlur>
            <feColorMatrix values="0 0 0 0 0   0 0 0 0 0   0 0 0 0 0  0 0 0 0.5 0" type="matrix" in="shadowBlurOuter1"></feColorMatrix>
        </filter>
        <ellipse id="path-3" cx="25.6097561" cy="39" rx="25.6097561" ry="25.59375"></ellipse>
        <filter x="-13.7%" y="-9.8%" width="127.3%" height="127.4%" filterUnits="objectBoundingBox" id="filter-4">
            <feOffset dx="0" dy="2" in="SourceAlpha" result="shadowOffsetOuter1"></feOffset>
            <feGaussianBlur stdDeviation="2" in="shadowOffsetOuter1" result="shadowBlurOuter1"></feGaussianBlur>
            <feColorMatrix values="0 0 0 0 0   0 0 0 0 0   0 0 0 0 0  0 0 0 0.5 0" type="matrix" in="shadowBlurOuter1"></feColorMatrix>
        </filter>
    </defs>
    <g id="Symbols" stroke="none" stroke-width="1" fill="none" fill-rule="evenodd">
        <g id="FOOTER/desktop" transform="translate(-79.000000, -21.000000)">
            <g id="Group-17" transform="translate(83.000000, 23.000000)">
                <g id="Group-16">
                    <g id="Group" transform="translate(0.000000, 0.000000)">
                        <g id="Group-4">
                            <g id="Oval">
                                <use fill="black" fill-opacity="1" filter="url(#filter-2)" xlink:href="#path-1"></use>
                                <use fill="#1DC1CB" fill-rule="evenodd" xlink:href="#path-1"></use>
                            </g>
                            <g id="Oval">
                                <use fill="black" fill-opacity="1" filter="url(#filter-4)" xlink:href="#path-3"></use>
                                <use fill="#3E61DF" fill-rule="evenodd" xlink:href="#path-3"></use>
                            </g>
                            <g id="Group-5" transform="translate(11.585366, 25.593750)">
                                <g id="Group-3">
                                    <path d="M78.5156861,14.676229 L76.1740269,12.2622908 C74.8597693,13.4812723 73.6889673,14.2615754 71.7775098,14.2615754 C68.9102136,14.2615754 66.9270284,11.8232756 66.9270284,8.89729325 L66.9270284,8.84823312 C66.9270284,5.92225082 68.9579588,3.53278654 71.7775098,3.53278654 C73.4502413,3.53278654 74.764499,4.26425405 76.054774,5.45921072 L78.3962131,2.70364783 C76.8432296,1.1430416 74.9554797,0.0702862075 71.8014924,0.0702862075 C66.6639899,0.0702862075 63.0799659,4.04483064 63.0799659,8.89729325 L63.0799659,8.94596046 C63.0799659,13.8470903 66.7357176,17.7241319 71.6580368,17.7241319 C74.8837519,17.7241319 76.7952094,16.5536492 78.5156861,14.676229 Z M12.7360822,10.5065667 L12.7360822,7.16593082 L3.18424058,7.16593082 L3.18424058,10.5065667 L12.7360822,10.5065667 Z M12.7360822,17.4315112 L12.7360822,14.0909876 L0.000330035818,14.0909876 L0.000330035818,17.4315112 L12.7360822,17.4315112 Z M30.2085634,3.82540723 L30.2085634,0.362906891 L16.3498644,0.362906891 L16.3498644,3.82540723 L21.4393468,3.82540723 L21.4393468,17.4315112 L25.1188061,17.4315112 L25.1188061,3.82540723 L30.2085634,3.82540723 Z M48.7081162,17.4315112 L48.7081162,0.362906891 L45.0283818,0.362906891 L45.0283818,7.11720748 L38.2426254,7.11720748 L38.2426254,0.362906891 L34.562836,0.362906891 L34.562836,17.4315112 L38.2426254,17.4315112 L38.2426254,10.579764 L45.0283818,10.579764 L45.0283818,17.4315112 L48.7081162,17.4315112 Z M58.1041809,17.4315112 L58.1041809,0.362906891 L54.4247216,0.362906891 L54.4247216,17.4315112 L58.1041809,17.4315112 Z" id="Fill-1" fill="#FFFFFF"></path>
                                    <polygon id="Fill-2" fill="#1DC1CB" points="12.7360822 3.70354275 12.7360822 0.362906891 12.6164442 0.362906891 6.36820612 0.362906891 6.36820612 3.70354275"></polygon>
                                </g>
                                <path d="M6.7017078,27.3364613 L3.99214917,21.3221599 L2.70972395,21.3221599 L0,27.3364613 L1.41804092,27.3364613 L1.99599193,25.997064 L4.66962149,25.997064 L5.24773781,27.3364613 L6.7017078,27.3364613 Z M4.17273131,24.8369262 L2.49288211,24.8369262 L3.33280671,22.9004137 L4.17273131,24.8369262 Z M19.7061565,24.3507811 L19.7061565,24.3335006 C19.7061565,22.653021 18.3332473,21.3647887 16.3461274,21.3647887 L13.8804676,21.3647887 L13.8804676,27.3364613 L16.3461274,27.3364613 C18.3332473,27.3364613 19.7061565,26.0313128 19.7061565,24.3507811 Z M18.2520212,24.3677494 C18.2520212,25.4256093 17.4842853,26.1506629 16.3461274,26.1506629 L15.2714516,26.1506629 L15.2714516,22.5505871 L16.3461274,22.5505871 C17.4842853,22.5505871 18.2520212,23.2929212 18.2520212,24.3507811 L18.2520212,24.3677494 Z M32.538895,21.3647887 L31.039628,21.3647887 L29.3866705,25.5706721 L27.7338783,21.3647887 L26.1985168,21.3647887 L28.7544952,27.3790901 L29.9827513,27.3790901 L32.538895,21.3647887 Z M41.1717902,27.3364613 L41.1717902,21.3647887 L39.7809165,21.3647887 L39.7809165,27.3364613 L41.1717902,27.3364613 Z M53.5257685,25.5706721 L53.5257685,25.5535477 C53.5257685,24.5127601 52.8031644,24.0776759 51.5207392,23.762098 C50.4279334,23.4975289 50.1569225,23.3696426 50.1569225,22.9771351 L50.1569225,22.9601669 C50.1569225,22.6699893 50.4368055,22.439669 50.9697901,22.439669 C51.5026093,22.439669 52.0535584,22.6614011 52.6135449,23.0283521 L53.3361489,22.0387815 C52.694771,21.5524803 51.9090707,21.279375 50.9877546,21.279375 C49.6962369,21.279375 48.7750861,21.9959965 48.7750861,23.0795691 L48.7750861,23.0966414 C48.7750861,24.2824918 49.5968809,24.6151941 50.8704341,24.9222358 C51.9272005,25.1782167 52.1438219,25.348888 52.1438219,25.6815902 L52.1438219,25.6985585 C52.1438219,26.048281 51.8006773,26.261581 51.2317637,26.261581 C50.5091596,26.261581 49.9130787,25.9800958 49.3439998,25.5364234 L48.5220397,26.466397 C49.2807382,27.106141 50.247186,27.421875 51.2045964,27.421875 C52.5684131,27.421875 53.5257685,26.7564705 53.5257685,25.5706721 Z M65.7534439,27.3364613 L65.7534439,26.1677873 L62.3212812,26.1677873 L62.3212812,24.9138037 L65.3018508,24.9138037 L65.3018508,23.7449736 L62.3212812,23.7449736 L62.3212812,22.5335147 L65.7082571,22.5335147 L65.7082571,21.3647887 L60.9394449,21.3647887 L60.9394449,27.3364613 L65.7534439,27.3364613 Z M78.6585366,27.3364613 L77.1139724,25.2037211 C77.9178027,24.9222358 78.468862,24.3165324 78.468862,23.3526743 L78.468862,23.3353938 C78.468862,22.1069667 77.5746029,21.3647887 76.084263,21.3647887 L73.1941223,21.3647887 L73.1941223,27.3364613 L74.584996,27.3364613 L74.584996,25.4256093 L75.6778017,25.4256093 L77.0327463,27.3364613 L78.6585366,27.3364613 Z M77.0599135,23.4208075 C77.0599135,23.924077 76.6714167,24.2653674 75.9939444,24.2653674 L74.584996,24.2653674 L74.584996,22.5505871 L75.9669425,22.5505871 C76.6444148,22.5505871 77.0599135,22.8406605 77.0599135,23.4036831 L77.0599135,23.4208075 Z" id="Fill-4" fill="#FFFFFF"></path>
                            </g>
                        </g>
                    </g>
                </g>
            </g>
        </g>
    </g>
</svg>